<?xml version="1.0" encoding="UTF-8"?>
<svg id="Capa_1" data-name="Capa 1" xmlns="http://www.w3.org/2000/svg" viewBox="0 0 618.13 651.98">
  <defs>
    <style>
      .cls-1 {
        fill: #21325e;
      }
    </style>
  </defs>
  <path class="cls-1" d="M218.96,581.44c1.28,12.12,8.41,29.19,19.55,35.27l10.34,5.21c-34.87-2.3-69.97-23.96-78.12-59.54-3.48-15.21-.21-30.91-2.26-46.33-30.24-25.16-56.34-54.12-73.09-90.14C26.3,277.27,125.29,104.74,287.38,91.03c7.05-35.65,39.47-62.38,76.11-60.92l-10.14,4.17c-9.37,5.38-18.51,21.98-18.51,32.57v226.77c0,.1-3,2.98.6,1.85,9.97-3.14,20.55-13.59,30.55-17.43v29.9l-31.15,16.2v215.56c131.47-17.33,217.72-144.93,181.29-274.11-21.77-77.2-89.48-138.79-168.83-152.01v-21.18c18.02,2.8,35.47,8.25,52.33,14.95v-35.51c0-11.62-8.79-30.84-18.75-37.32l-11.15-4.41c30.55.6,60.6,17.29,73.33,45.64,9.34,20.82,5.41,38.28,7.02,60.26,86.18,65.25,118.63,178.96,76.86,279.93-33.48,80.92-108.66,135.38-195.61,145.17-6.86,36.71-42.25,58.15-77.47,60.82l11.12-5.68c9.32-6.35,18.77-23.63,18.77-34.81v-226.15l-31.15,17.44v-29.9l31.15-18.07V111.08c-67.97,8.9-129.65,49.43-162.97,109.28-71.94,129.2,5.83,291.9,150.51,316.85v19.94c-18.17-.66-35.52-7.39-52.33-13.71.93,12.16-1.26,26.06,0,38Z"/>
  <path class="cls-1" d="M250.1,155.95l-13.07,6.22c-14.42,11.03-17.14,27.02-18.12,44.18-4.67,81.53,2.6,168.58,1.3,250.49,2.22,16.46,11.53,33.81,29.26,36.77,2.05,1.65-1.51,1.38-2.51,1.29-33.94-3.06-58.23-17.71-70.97-49.91-11.13-28.14-6.97-53.93-6.82-82.79.22-42.34-3.15-90.72-.1-132.17,3.37-45.67,38.05-69.75,81.03-74.08Z"/>
  <path class="cls-1" d="M449.29,229.27l-49.65,27.58c-.65-15.51.84-31.27.04-46.77-.97-18.95-3.56-39.1-21.32-49.71l-9.88-4.43c41.56,2.56,78.08,29.79,80.8,73.32Z"/>
  <path class="cls-1" d="M449.47,393.92v23.05c0,6.35-4.71,22.51-7.25,28.88-11.75,29.5-41.71,49.95-73.75,48.37,33.57-8.27,29.72-44.21,30.55-71.64l50.45-28.67Z"/>
</svg>